<svg width="19" height="18" viewBox="0 0 19 18" fill="none" xmlns="http://www.w3.org/2000/svg">
<path d="M17.4957 18C15.3872 18 13.332 17.5207 11.3301 16.562C9.32753 15.604 7.55413 14.3373 6.00987 12.762C4.46497 11.1873 3.22277 9.379 2.28327 7.337C1.34312 5.29567 0.873047 3.2 0.873047 1.05C0.873047 0.75 0.971115 0.5 1.16725 0.3C1.36339 0.0999999 1.60856 0 1.90277 0H5.87454C6.10337 0 6.30768 0.0749999 6.48747 0.225C6.66726 0.375 6.7735 0.566667 6.80619 0.8L7.44363 4.3C7.47632 4.53333 7.4724 4.74567 7.43187 4.937C7.39068 5.129 7.29653 5.3 7.14943 5.45L4.79579 7.9C5.48227 9.1 6.34036 10.225 7.37008 11.275C8.3998 12.325 9.53576 13.2333 10.778 14L13.0826 11.65C13.2297 11.5 13.4219 11.3873 13.6592 11.312C13.8959 11.2373 14.1286 11.2167 14.3575 11.25L17.7408 11.95C17.9697 12 18.1576 12.1123 18.3047 12.287C18.4518 12.4623 18.5254 12.6667 18.5254 12.9V16.95C18.5254 17.25 18.4273 17.5 18.2312 17.7C18.035 17.9 17.7899 18 17.4957 18Z" fill="#F6F8F8"/>
</svg>
